<svg xmlns="http://www.w3.org/2000/svg" width="20" height="20" viewBox="0 0 512 512"><path d="M32 464V48c0-8.837 7.163-16 16-16h240v64c0 17.673 14.327 32 32 32h64v48h32v-64a15.997 15.997 0 0 0-4.64-11.36l-96-96A16.001 16.001 0 0 0 304 0H48C21.49 0 0 21.491 0 48v416c0 26.51 21.49 48 48 48h112v-32H48c-8.836 0-16-7.163-16-16z"/><path d="M288 288h32c8.837 0 16 7.163 16 16h32c0-26.51-21.49-48-48-48h-32c-26.51 0-48 21.49-48 48s21.49 48 48 48h32c8.837 0 16 7.163 16 16s-7.163 16-16 16h-32c-8.837 0-16-7.163-16-16h-32c0 26.51 21.49 48 48 48h32c26.51 0 48-21.49 48-48s-21.49-48-48-48h-32c-8.837 0-16-7.163-16-16s7.164-16 16-16zM160 288c17.673 0 32 14.327 32 32h32c0-35.346-28.654-64-64-64-35.346 0-64 28.654-64 64v32c0 35.346 28.654 64 64 64 35.346 0 64-28.654 64-64h-32c0 17.673-14.327 32-32 32s-32-14.327-32-32v-32c0-17.673 14.327-32 32-32zM480 256v96c0 17.28-24.32 32-32 32s-32-14.72-32-32v-96h-32v96c0 35.36 38.72 64 64 64s64-28.64 64-64v-96h-32z"/></svg>